<svg>
    <g transform="matrix(1,0,0,1,-161,-651)">
        <g transform="matrix(1,0,0,1,-111.678,5.59552e-14)">
            <g id="Leadster-Logo-1" serif:id="Leadster Logo 1">
                <g id="Leadster-font--Combined---Body-" serif:id="Leadster font (Combined) [Body]" transform="matrix(1,0,0,1,111.678,1.77636e-15)">
                    <path d="M1294.46,1108.2C1292.77,1111.46 1288.85,1112.87 1285.47,1111.41C1276.88,1107.71 1268.42,1105.87 1260.1,1105.87C1254.78,1105.87 1250.47,1106.93 1247.18,1109.06C1243.88,1111.19 1242.23,1114.06 1242.23,1117.68C1242.23,1119.59 1242.5,1121.14 1243.03,1122.31C1243.56,1123.48 1244.73,1124.59 1246.54,1125.66C1248.35,1126.72 1251.01,1127.68 1254.52,1128.53C1258.03,1129.38 1262.65,1130.44 1268.4,1131.72C1284.36,1134.91 1296.27,1140.6 1304.14,1148.79C1312.02,1156.99 1315.95,1167.46 1315.95,1180.23C1315.95,1189.8 1314.04,1198.42 1310.21,1206.08C1306.38,1213.74 1301.06,1220.17 1294.25,1225.39C1287.44,1230.6 1279.25,1234.64 1269.68,1237.51C1260.1,1240.39 1249.57,1241.82 1238.08,1241.82C1218.02,1241.82 1198.23,1236.66 1178.69,1226.35C1175.33,1224.55 1174.03,1220.38 1175.78,1216.99C1181.61,1205.63 1193.72,1182.14 1193.72,1182.14C1209.89,1193.21 1225.21,1198.74 1239.68,1198.74C1245,1198.74 1249.36,1197.57 1252.76,1195.23C1256.17,1192.89 1257.87,1189.91 1257.87,1186.29C1257.87,1184.16 1257.6,1182.41 1257.07,1181.03C1256.54,1179.64 1255.42,1178.37 1253.72,1177.2C1252.02,1176.03 1249.52,1174.96 1246.22,1174.01C1242.92,1173.05 1238.61,1172.04 1233.29,1170.97C1215.42,1167.36 1202.92,1161.99 1195.8,1154.86C1188.67,1147.73 1185.11,1137.89 1185.11,1125.34C1185.11,1116.19 1186.81,1107.94 1190.21,1100.61C1193.62,1093.27 1198.51,1087.04 1204.89,1081.93C1211.27,1076.83 1218.99,1072.89 1228.03,1070.13C1237.07,1067.36 1247.12,1065.98 1258.19,1065.98C1273.64,1065.98 1288.71,1068.54 1303.39,1073.67C1305.28,1074.35 1306.79,1075.81 1307.53,1077.68C1308.27,1079.56 1308.16,1081.66 1307.24,1083.45C1303.58,1090.56 1297.94,1101.48 1294.46,1108.2ZM1524.03,1163.63C1524.03,1188.53 1535.73,1200.97 1559.13,1200.97C1570.48,1200.97 1579.3,1196.8 1585.61,1188.46C1586.92,1186.71 1588.98,1185.68 1591.17,1185.68C1599.64,1185.65 1620.88,1185.65 1633.51,1185.65C1635.85,1185.65 1638.04,1186.83 1639.33,1188.78C1640.63,1190.73 1640.87,1193.2 1639.96,1195.36C1626.88,1226.33 1599.85,1241.82 1558.81,1241.82C1544.98,1241.82 1532.33,1239.75 1520.84,1235.6C1509.35,1231.45 1499.51,1225.55 1491.32,1217.89C1483.12,1210.23 1476.8,1201.08 1472.33,1190.44C1467.86,1179.8 1465.63,1167.89 1465.63,1154.7C1465.63,1141.08 1467.75,1128.8 1472.01,1117.84C1476.26,1106.88 1482.33,1097.57 1490.2,1089.91C1498.07,1082.25 1507.59,1076.35 1518.76,1072.2C1529.93,1068.05 1542.54,1065.98 1556.58,1065.98C1570.41,1065.98 1582.86,1068.05 1593.92,1072.2C1604.98,1076.35 1614.34,1082.36 1622,1090.23C1629.66,1098.11 1635.51,1107.73 1639.56,1119.12C1643.6,1130.5 1645.62,1143.32 1645.62,1157.57L1645.62,1157.57C1645.62,1160.92 1642.9,1163.63 1639.56,1163.63C1614.98,1163.63 1524.03,1163.63 1524.03,1163.63ZM580.979,1163.63C580.979,1188.53 592.681,1200.97 616.084,1200.97C627.427,1200.97 636.251,1196.8 642.556,1188.46C643.873,1186.71 645.936,1185.68 648.126,1185.68C656.588,1185.65 677.829,1185.65 690.457,1185.65C692.8,1185.65 694.988,1186.83 696.286,1188.78C697.584,1190.73 697.819,1193.2 696.913,1195.36C683.83,1226.33 656.796,1241.82 615.765,1241.82C601.936,1241.82 589.277,1239.75 577.788,1235.6C566.299,1231.45 556.459,1225.55 548.268,1217.89C540.077,1210.23 533.747,1201.08 529.279,1190.44C524.811,1179.8 522.577,1167.89 522.577,1154.7C522.577,1141.08 524.705,1128.8 528.96,1117.84C533.215,1106.88 539.279,1097.57 547.151,1089.91C555.023,1082.25 564.544,1076.35 575.713,1072.2C586.883,1068.05 599.489,1065.98 613.531,1065.98C627.36,1065.98 639.807,1068.05 650.87,1072.2C661.934,1076.35 671.295,1082.36 678.954,1090.23C686.613,1098.11 692.464,1107.73 696.507,1119.12C700.549,1130.5 702.57,1143.32 702.57,1157.57L702.57,1157.57C702.57,1160.92 699.856,1163.63 696.508,1163.63C671.926,1163.63 580.979,1163.63 580.979,1163.63ZM861.819,1079.04C861.819,1077.19 862.557,1075.4 863.87,1074.09C865.182,1072.78 866.963,1072.04 868.819,1072.04C879.992,1072.04 901.73,1072.04 912.902,1072.04C914.759,1072.04 916.539,1072.78 917.852,1074.09C919.165,1075.4 919.902,1077.19 919.902,1079.04C919.902,1105.87 919.902,1201.94 919.902,1228.76C919.902,1230.62 919.165,1232.4 917.852,1233.71C916.539,1235.02 914.759,1235.76 912.902,1235.76C901.73,1235.76 879.992,1235.76 868.819,1235.76C864.953,1235.76 861.819,1232.62 861.819,1228.76C861.819,1223.63 861.819,1217.57 861.819,1217.57C849.479,1233.1 832.778,1240.87 811.715,1240.87C799.801,1240.87 788.843,1238.68 778.844,1234.32C768.844,1229.96 760.121,1223.85 752.675,1215.97C745.228,1208.1 739.431,1198.85 735.282,1188.21C731.133,1177.57 729.059,1165.98 729.059,1153.42C729.059,1141.72 731.08,1130.6 735.122,1120.07C739.165,1109.54 744.803,1100.34 752.036,1092.47C759.27,1084.6 767.887,1078.37 777.886,1073.8C787.886,1069.22 798.949,1066.94 811.077,1066.94C831.501,1066.94 848.416,1074.06 861.819,1088.32L861.819,1079.04ZM1085.53,977.876C1085.53,974.01 1088.67,970.876 1092.53,970.876C1103.71,970.876 1125.44,970.876 1136.62,970.876C1140.48,970.876 1143.62,974.01 1143.62,977.876C1143.62,1015.29 1143.62,1191.35 1143.62,1228.76C1143.62,1232.62 1140.48,1235.76 1136.62,1235.76C1125.44,1235.76 1103.71,1235.76 1092.53,1235.76C1088.67,1235.76 1085.53,1232.62 1085.53,1228.76C1085.53,1223.63 1085.53,1217.57 1085.53,1217.57C1073.19,1233.1 1056.49,1240.87 1035.43,1240.87C1023.51,1240.87 1012.56,1238.63 1002.56,1234.16C992.559,1229.69 983.836,1223.53 976.389,1215.65C968.943,1207.78 963.145,1198.53 958.996,1187.89C954.848,1177.25 952.773,1165.76 952.773,1153.42C952.773,1141.72 954.741,1130.6 958.677,1120.07C962.613,1109.54 968.198,1100.34 975.432,1092.47C982.666,1084.6 991.336,1078.37 1001.44,1073.8C1011.55,1069.22 1022.66,1066.94 1034.79,1066.94C1055.22,1066.94 1072.13,1074.06 1085.53,1088.32L1085.53,977.876ZM1678.49,1079.04C1678.49,1077.19 1679.23,1075.4 1680.54,1074.09C1681.85,1072.78 1683.63,1072.04 1685.49,1072.04C1696.6,1072.04 1718.14,1072.04 1729.25,1072.04C1731.11,1072.04 1732.89,1072.78 1734.2,1074.09C1735.52,1075.4 1736.25,1077.19 1736.25,1079.04C1736.25,1086.99 1736.25,1098.85 1736.25,1098.85C1742.42,1089.06 1749.98,1081.56 1758.91,1076.35C1767.85,1071.14 1778.27,1068.53 1790.19,1068.53L1795.13,1068.53C1798.57,1068.53 1801.36,1071.32 1801.36,1074.75C1801.36,1083.99 1801.36,1102.6 1801.36,1114.22C1801.36,1116.43 1800.31,1118.51 1798.53,1119.84C1796.76,1121.16 1794.46,1121.56 1792.34,1120.92C1787.31,1119.37 1782.01,1118.64 1776.47,1118.64C1763.06,1118.64 1753.01,1122.62 1746.31,1130.6C1739.6,1138.58 1736.25,1150.23 1736.25,1165.55L1736.25,1228.76C1736.25,1232.62 1733.12,1235.76 1729.25,1235.76C1718.14,1235.76 1696.6,1235.76 1685.49,1235.76C1683.63,1235.76 1681.85,1235.02 1680.54,1233.71C1679.23,1232.4 1678.49,1230.62 1678.49,1228.76C1678.49,1201.94 1678.49,1105.87 1678.49,1079.04ZM1407.25,1235.76L1363.48,1235.76C1359.62,1235.76 1356.48,1232.62 1356.48,1228.76L1356.48,1120.23L1344.33,1120.23C1342.48,1120.23 1340.7,1119.49 1339.38,1118.18C1338.07,1116.87 1337.33,1115.09 1337.33,1113.23C1337.33,1104.09 1337.33,1088.18 1337.33,1079.04C1337.33,1077.19 1338.07,1075.4 1339.38,1074.09C1340.7,1072.78 1342.48,1072.04 1344.33,1072.04C1349.8,1072.04 1356.48,1072.04 1356.48,1072.04L1356.48,1029.89C1356.48,1028.04 1357.22,1026.26 1358.53,1024.94C1359.84,1023.63 1361.62,1022.89 1363.48,1022.89L1407.25,1022.89C1409.1,1022.89 1410.88,1023.63 1412.19,1024.94C1413.51,1026.26 1414.25,1028.04 1414.25,1029.89L1414.25,1072.04L1440.12,1072.04C1441.97,1072.04 1443.75,1072.78 1445.07,1074.09C1446.38,1075.4 1447.12,1077.19 1447.12,1079.04C1447.12,1088.18 1447.12,1104.09 1447.12,1113.23C1447.12,1115.09 1446.38,1116.87 1445.07,1118.18C1443.75,1119.49 1441.97,1120.23 1440.12,1120.23C1430.46,1120.23 1414.25,1120.23 1414.25,1120.23L1414.25,1228.76C1414.25,1232.62 1411.11,1235.76 1407.25,1235.76ZM789.056,1153.42C789.056,1158.74 790.014,1163.69 791.928,1168.26C793.843,1172.84 796.45,1176.83 799.747,1180.23C803.045,1183.63 806.981,1186.29 811.555,1188.21C816.13,1190.12 821.076,1191.08 826.395,1191.08C831.501,1191.08 836.342,1190.12 840.916,1188.21C845.49,1186.29 849.426,1183.63 852.724,1180.23C856.022,1176.83 858.681,1172.89 860.702,1168.42C862.724,1163.95 863.734,1159.17 863.734,1154.06C863.734,1148.95 862.724,1144.11 860.702,1139.54C858.681,1134.96 856.022,1130.98 852.724,1127.57C849.426,1124.17 845.49,1121.51 840.916,1119.59C836.342,1117.68 831.501,1116.72 826.395,1116.72C821.076,1116.72 816.13,1117.68 811.555,1119.59C806.981,1121.51 803.045,1124.17 799.747,1127.57C796.45,1130.98 793.843,1134.86 791.928,1139.22C790.014,1143.58 789.056,1148.32 789.056,1153.42ZM1012.77,1153.42C1012.77,1158.74 1013.73,1163.69 1015.64,1168.26C1017.56,1172.84 1020.16,1176.83 1023.46,1180.23C1026.76,1183.63 1030.7,1186.29 1035.27,1188.21C1039.84,1190.12 1044.79,1191.08 1050.11,1191.08C1055.22,1191.08 1060.06,1190.12 1064.63,1188.21C1069.2,1186.29 1073.14,1183.63 1076.44,1180.23C1079.74,1176.83 1082.4,1172.89 1084.42,1168.42C1086.44,1163.95 1087.45,1159.17 1087.45,1154.06C1087.45,1148.95 1086.44,1144.11 1084.42,1139.54C1082.4,1134.96 1079.74,1130.98 1076.44,1127.57C1073.14,1124.17 1069.2,1121.51 1064.63,1119.59C1060.06,1117.68 1055.22,1116.72 1050.11,1116.72C1045,1116.72 1040.16,1117.68 1035.59,1119.59C1031.02,1121.51 1027.08,1124.17 1023.78,1127.57C1020.48,1130.98 1017.82,1134.86 1015.8,1139.22C1013.78,1143.58 1012.77,1148.32 1012.77,1153.42ZM1591.68,1130.12C1589.77,1122.04 1585.83,1115.55 1579.88,1110.66C1573.92,1105.76 1566.69,1103.32 1558.17,1103.32C1549.24,1103.32 1541.95,1105.66 1536.31,1110.34C1530.68,1115.02 1527.11,1121.62 1525.62,1130.12L1591.68,1130.12ZM648.636,1130.12C646.721,1122.04 642.785,1115.55 636.828,1110.66C630.871,1105.76 623.637,1103.32 615.127,1103.32C606.191,1103.32 598.904,1105.66 593.266,1110.34C587.628,1115.02 584.064,1121.62 582.575,1130.12L648.636,1130.12Z" style="fill:white;fill-rule:nonzero;"/>
                    <clipPath id="_clip1">
                        <path d="M1294.46,1108.2C1292.77,1111.46 1288.85,1112.87 1285.47,1111.41C1276.88,1107.71 1268.42,1105.87 1260.1,1105.87C1254.78,1105.87 1250.47,1106.93 1247.18,1109.06C1243.88,1111.19 1242.23,1114.06 1242.23,1117.68C1242.23,1119.59 1242.5,1121.14 1243.03,1122.31C1243.56,1123.48 1244.73,1124.59 1246.54,1125.66C1248.35,1126.72 1251.01,1127.68 1254.52,1128.53C1258.03,1129.38 1262.65,1130.44 1268.4,1131.72C1284.36,1134.91 1296.27,1140.6 1304.14,1148.79C1312.02,1156.99 1315.95,1167.46 1315.95,1180.23C1315.95,1189.8 1314.04,1198.42 1310.21,1206.08C1306.38,1213.74 1301.06,1220.17 1294.25,1225.39C1287.44,1230.6 1279.25,1234.64 1269.68,1237.51C1260.1,1240.39 1249.57,1241.82 1238.08,1241.82C1218.02,1241.82 1198.23,1236.66 1178.69,1226.35C1175.33,1224.55 1174.03,1220.38 1175.78,1216.99C1181.61,1205.63 1193.72,1182.14 1193.72,1182.14C1209.89,1193.21 1225.21,1198.74 1239.68,1198.74C1245,1198.74 1249.36,1197.57 1252.76,1195.23C1256.17,1192.89 1257.87,1189.91 1257.87,1186.29C1257.87,1184.16 1257.6,1182.41 1257.07,1181.03C1256.54,1179.64 1255.42,1178.37 1253.72,1177.2C1252.02,1176.03 1249.52,1174.96 1246.22,1174.01C1242.92,1173.05 1238.61,1172.04 1233.29,1170.97C1215.42,1167.36 1202.92,1161.99 1195.8,1154.86C1188.67,1147.73 1185.11,1137.89 1185.11,1125.34C1185.11,1116.19 1186.81,1107.94 1190.21,1100.61C1193.62,1093.27 1198.51,1087.04 1204.89,1081.93C1211.27,1076.83 1218.99,1072.89 1228.03,1070.13C1237.07,1067.36 1247.12,1065.98 1258.19,1065.98C1273.64,1065.98 1288.71,1068.54 1303.39,1073.67C1305.28,1074.35 1306.79,1075.81 1307.53,1077.68C1308.27,1079.56 1308.16,1081.66 1307.24,1083.45C1303.58,1090.56 1297.94,1101.48 1294.46,1108.2ZM1524.03,1163.63C1524.03,1188.53 1535.73,1200.97 1559.13,1200.97C1570.48,1200.97 1579.3,1196.8 1585.61,1188.46C1586.92,1186.71 1588.98,1185.68 1591.17,1185.68C1599.64,1185.65 1620.88,1185.65 1633.51,1185.65C1635.85,1185.65 1638.04,1186.83 1639.33,1188.78C1640.63,1190.73 1640.87,1193.2 1639.96,1195.36C1626.88,1226.33 1599.85,1241.82 1558.81,1241.82C1544.98,1241.82 1532.33,1239.75 1520.84,1235.6C1509.35,1231.45 1499.51,1225.55 1491.32,1217.89C1483.12,1210.23 1476.8,1201.08 1472.33,1190.44C1467.86,1179.8 1465.63,1167.89 1465.63,1154.7C1465.63,1141.08 1467.75,1128.8 1472.01,1117.84C1476.26,1106.88 1482.33,1097.57 1490.2,1089.91C1498.07,1082.25 1507.59,1076.35 1518.76,1072.2C1529.93,1068.05 1542.54,1065.98 1556.58,1065.98C1570.41,1065.98 1582.86,1068.05 1593.92,1072.2C1604.98,1076.35 1614.34,1082.36 1622,1090.23C1629.66,1098.11 1635.51,1107.73 1639.56,1119.12C1643.6,1130.5 1645.62,1143.32 1645.62,1157.57L1645.62,1157.57C1645.62,1160.92 1642.9,1163.63 1639.56,1163.63C1614.98,1163.63 1524.03,1163.63 1524.03,1163.63ZM580.979,1163.63C580.979,1188.53 592.681,1200.97 616.084,1200.97C627.427,1200.97 636.251,1196.8 642.556,1188.46C643.873,1186.71 645.936,1185.68 648.126,1185.68C656.588,1185.65 677.829,1185.65 690.457,1185.65C692.8,1185.65 694.988,1186.83 696.286,1188.78C697.584,1190.73 697.819,1193.2 696.913,1195.36C683.83,1226.33 656.796,1241.82 615.765,1241.82C601.936,1241.82 589.277,1239.75 577.788,1235.6C566.299,1231.45 556.459,1225.55 548.268,1217.89C540.077,1210.23 533.747,1201.08 529.279,1190.44C524.811,1179.8 522.577,1167.89 522.577,1154.7C522.577,1141.08 524.705,1128.8 528.96,1117.84C533.215,1106.88 539.279,1097.57 547.151,1089.91C555.023,1082.25 564.544,1076.35 575.713,1072.2C586.883,1068.05 599.489,1065.98 613.531,1065.98C627.36,1065.98 639.807,1068.05 650.87,1072.2C661.934,1076.35 671.295,1082.36 678.954,1090.23C686.613,1098.11 692.464,1107.73 696.507,1119.12C700.549,1130.5 702.57,1143.32 702.57,1157.57L702.57,1157.57C702.57,1160.92 699.856,1163.63 696.508,1163.63C671.926,1163.63 580.979,1163.63 580.979,1163.63ZM861.819,1079.04C861.819,1077.19 862.557,1075.4 863.87,1074.09C865.182,1072.78 866.963,1072.04 868.819,1072.04C879.992,1072.04 901.73,1072.04 912.902,1072.04C914.759,1072.04 916.539,1072.78 917.852,1074.09C919.165,1075.4 919.902,1077.19 919.902,1079.04C919.902,1105.87 919.902,1201.94 919.902,1228.76C919.902,1230.62 919.165,1232.4 917.852,1233.71C916.539,1235.02 914.759,1235.76 912.902,1235.76C901.73,1235.76 879.992,1235.76 868.819,1235.76C864.953,1235.76 861.819,1232.62 861.819,1228.76C861.819,1223.63 861.819,1217.57 861.819,1217.57C849.479,1233.1 832.778,1240.87 811.715,1240.87C799.801,1240.87 788.843,1238.68 778.844,1234.32C768.844,1229.96 760.121,1223.85 752.675,1215.97C745.228,1208.1 739.431,1198.85 735.282,1188.21C731.133,1177.57 729.059,1165.98 729.059,1153.42C729.059,1141.72 731.08,1130.6 735.122,1120.07C739.165,1109.54 744.803,1100.34 752.036,1092.47C759.27,1084.6 767.887,1078.37 777.886,1073.8C787.886,1069.22 798.949,1066.94 811.077,1066.94C831.501,1066.94 848.416,1074.06 861.819,1088.32L861.819,1079.04ZM1085.53,977.876C1085.53,974.01 1088.67,970.876 1092.53,970.876C1103.71,970.876 1125.44,970.876 1136.62,970.876C1140.48,970.876 1143.62,974.01 1143.62,977.876C1143.62,1015.29 1143.62,1191.35 1143.62,1228.76C1143.62,1232.62 1140.48,1235.76 1136.62,1235.76C1125.44,1235.76 1103.71,1235.76 1092.53,1235.76C1088.67,1235.76 1085.53,1232.62 1085.53,1228.76C1085.53,1223.63 1085.53,1217.57 1085.53,1217.57C1073.19,1233.1 1056.49,1240.87 1035.43,1240.87C1023.51,1240.87 1012.56,1238.63 1002.56,1234.16C992.559,1229.69 983.836,1223.53 976.389,1215.65C968.943,1207.78 963.145,1198.53 958.996,1187.89C954.848,1177.25 952.773,1165.76 952.773,1153.42C952.773,1141.72 954.741,1130.6 958.677,1120.07C962.613,1109.54 968.198,1100.34 975.432,1092.47C982.666,1084.6 991.336,1078.37 1001.44,1073.8C1011.55,1069.22 1022.66,1066.94 1034.79,1066.94C1055.22,1066.94 1072.13,1074.06 1085.53,1088.32L1085.53,977.876ZM1678.49,1079.04C1678.49,1077.19 1679.23,1075.4 1680.54,1074.09C1681.85,1072.78 1683.63,1072.04 1685.49,1072.04C1696.6,1072.04 1718.14,1072.04 1729.25,1072.04C1731.11,1072.04 1732.89,1072.78 1734.2,1074.09C1735.52,1075.4 1736.25,1077.19 1736.25,1079.04C1736.25,1086.99 1736.25,1098.85 1736.25,1098.85C1742.42,1089.06 1749.98,1081.56 1758.91,1076.35C1767.85,1071.14 1778.27,1068.53 1790.19,1068.53L1795.13,1068.53C1798.57,1068.53 1801.36,1071.32 1801.36,1074.75C1801.36,1083.99 1801.36,1102.6 1801.36,1114.22C1801.36,1116.43 1800.31,1118.51 1798.53,1119.84C1796.76,1121.16 1794.46,1121.56 1792.34,1120.92C1787.31,1119.37 1782.01,1118.64 1776.47,1118.64C1763.06,1118.64 1753.01,1122.62 1746.31,1130.6C1739.6,1138.58 1736.25,1150.23 1736.25,1165.55L1736.25,1228.76C1736.25,1232.62 1733.12,1235.76 1729.25,1235.76C1718.14,1235.76 1696.6,1235.76 1685.49,1235.76C1683.63,1235.76 1681.85,1235.02 1680.54,1233.71C1679.23,1232.4 1678.49,1230.62 1678.49,1228.76C1678.49,1201.94 1678.49,1105.87 1678.49,1079.04ZM1407.25,1235.76L1363.48,1235.76C1359.62,1235.76 1356.48,1232.62 1356.48,1228.76L1356.48,1120.23L1344.33,1120.23C1342.48,1120.23 1340.7,1119.49 1339.38,1118.18C1338.07,1116.87 1337.33,1115.09 1337.33,1113.23C1337.33,1104.09 1337.33,1088.18 1337.33,1079.04C1337.33,1077.19 1338.07,1075.4 1339.38,1074.09C1340.7,1072.78 1342.48,1072.04 1344.33,1072.04C1349.8,1072.04 1356.48,1072.04 1356.48,1072.04L1356.48,1029.89C1356.48,1028.04 1357.22,1026.26 1358.53,1024.94C1359.84,1023.63 1361.62,1022.89 1363.48,1022.89L1407.25,1022.89C1409.1,1022.89 1410.88,1023.63 1412.19,1024.94C1413.51,1026.26 1414.25,1028.04 1414.25,1029.89L1414.25,1072.04L1440.12,1072.04C1441.97,1072.04 1443.75,1072.78 1445.07,1074.09C1446.38,1075.4 1447.12,1077.19 1447.12,1079.04C1447.12,1088.18 1447.12,1104.09 1447.12,1113.23C1447.12,1115.09 1446.38,1116.87 1445.07,1118.18C1443.75,1119.49 1441.97,1120.23 1440.12,1120.23C1430.46,1120.23 1414.25,1120.23 1414.25,1120.23L1414.25,1228.76C1414.25,1232.62 1411.11,1235.76 1407.25,1235.76ZM789.056,1153.42C789.056,1158.74 790.014,1163.69 791.928,1168.26C793.843,1172.84 796.45,1176.83 799.747,1180.23C803.045,1183.63 806.981,1186.29 811.555,1188.21C816.13,1190.12 821.076,1191.08 826.395,1191.08C831.501,1191.08 836.342,1190.12 840.916,1188.21C845.49,1186.29 849.426,1183.63 852.724,1180.23C856.022,1176.83 858.681,1172.89 860.702,1168.42C862.724,1163.95 863.734,1159.17 863.734,1154.06C863.734,1148.95 862.724,1144.11 860.702,1139.54C858.681,1134.96 856.022,1130.98 852.724,1127.57C849.426,1124.17 845.49,1121.51 840.916,1119.59C836.342,1117.68 831.501,1116.72 826.395,1116.72C821.076,1116.72 816.13,1117.68 811.555,1119.59C806.981,1121.51 803.045,1124.17 799.747,1127.57C796.45,1130.98 793.843,1134.86 791.928,1139.22C790.014,1143.58 789.056,1148.32 789.056,1153.42ZM1012.77,1153.42C1012.77,1158.74 1013.73,1163.69 1015.64,1168.26C1017.56,1172.84 1020.16,1176.83 1023.46,1180.23C1026.76,1183.63 1030.7,1186.29 1035.27,1188.21C1039.84,1190.12 1044.79,1191.08 1050.11,1191.08C1055.22,1191.08 1060.06,1190.12 1064.63,1188.21C1069.2,1186.29 1073.14,1183.63 1076.44,1180.23C1079.74,1176.83 1082.4,1172.89 1084.42,1168.42C1086.44,1163.95 1087.45,1159.17 1087.45,1154.06C1087.45,1148.95 1086.44,1144.11 1084.42,1139.54C1082.4,1134.96 1079.74,1130.98 1076.44,1127.57C1073.14,1124.17 1069.2,1121.51 1064.63,1119.59C1060.06,1117.68 1055.22,1116.72 1050.11,1116.72C1045,1116.72 1040.16,1117.68 1035.59,1119.59C1031.02,1121.51 1027.08,1124.17 1023.78,1127.57C1020.48,1130.98 1017.82,1134.86 1015.8,1139.22C1013.78,1143.58 1012.77,1148.32 1012.77,1153.42ZM1591.68,1130.12C1589.77,1122.04 1585.83,1115.55 1579.88,1110.66C1573.92,1105.76 1566.69,1103.32 1558.17,1103.32C1549.24,1103.32 1541.95,1105.66 1536.31,1110.34C1530.68,1115.02 1527.11,1121.62 1525.62,1130.12L1591.68,1130.12ZM648.636,1130.12C646.721,1122.04 642.785,1115.55 636.828,1110.66C630.871,1105.76 623.637,1103.32 615.127,1103.32C606.191,1103.32 598.904,1105.66 593.266,1110.34C587.628,1115.02 584.064,1121.62 582.575,1130.12L648.636,1130.12Z" clip-rule="nonzero"/>
                    </clipPath>
                    <g clip-path="url(#_clip1)">
                        <g id="Shadow--2" serif:id="Shadow #2" transform="matrix(1.3345,0,0,1,-543.032,-214.724)">
                            <rect x="541.914" y="1359.87" width="1228.7" height="223.742" style="fill:rgb(178,178,178);"/>
                        </g>
                    </g>
                </g>
                <g id="Leadster--Check---Body-" serif:id="Leadster &quot;Check&quot; (Body)" transform="matrix(1,0,0,1,175.029,373.581)">
                    <path d="M167.059,608.082C155.734,606.289 144.485,611.718 138.845,621.702C133.205,631.685 134.36,644.122 141.741,652.897C168.927,684.07 197.927,715.418 222.862,746.1C267.767,801.353 301.855,858.118 337.199,918.004C339.405,921.734 343.548,923.876 347.866,923.521C352.185,923.166 355.922,920.376 357.489,916.336C438.946,708.534 572.315,519.679 721.89,375.33C731.506,366.054 732.814,351.109 724.954,340.305C717.094,329.501 702.472,326.144 690.687,332.438C547.135,409.492 436.28,539.853 332.141,667.691C268.305,635.199 244.621,619.474 167.059,608.082Z" style="fill:rgb(58,200,232);"/>
                    <clipPath id="_clip2">
                        <path d="M167.059,608.082C155.734,606.289 144.485,611.718 138.845,621.702C133.205,631.685 134.36,644.122 141.741,652.897C168.927,684.07 197.927,715.418 222.862,746.1C267.767,801.353 301.855,858.118 337.199,918.004C339.405,921.734 343.548,923.876 347.866,923.521C352.185,923.166 355.922,920.376 357.489,916.336C438.946,708.534 572.315,519.679 721.89,375.33C731.506,366.054 732.814,351.109 724.954,340.305C717.094,329.501 702.472,326.144 690.687,332.438C547.135,409.492 436.28,539.853 332.141,667.691C268.305,635.199 244.621,619.474 167.059,608.082Z"/>
                    </clipPath>
                    <g clip-path="url(#_clip2)">
                        <g id="Shadow--3" serif:id="Shadow #3" transform="matrix(1.26609,0.0173434,-0.0173434,1.26609,-50.4772,-131.378)">
                            <path d="M153.624,593.679C144.686,591.444 135.311,595.097 130.242,602.79C125.173,610.483 125.515,620.538 131.095,627.87C161.224,667.642 194.693,711.439 222.862,746.1C268.817,802.646 303.444,860.775 339.682,922.212C341.425,925.163 344.704,926.857 348.12,926.572C351.536,926.287 354.488,924.073 355.719,920.873C442.818,696.301 590.688,493.58 754.442,344.848C762.043,338.001 763.654,326.696 758.268,317.999C752.881,309.302 742.042,305.707 732.526,309.462C531.487,389.338 419.424,546.285 328.392,703.742C305.711,677.881 251.664,618.337 153.624,593.679Z" style="fill:rgb(21,153,182);"/>
                        </g>
                    </g>
                </g>
            </g>
        </g>
    </g>
</svg>
